<svg width="16" height="17" viewBox="0 0 16 17" fill="none" xmlns="http://www.w3.org/2000/svg">
<path d="M7.66699 0.885742C7.66699 0.592341 7.89085 0.354492 8.16699 0.354492C8.44313 0.354492 8.66699 0.592341 8.66699 0.885742V7.04067L11.7025 3.81543C11.8978 3.60796 12.2144 3.60796 12.4096 3.81543C12.6049 4.02289 12.6049 4.35926 12.4096 4.56673L9.37408 7.79199H15.167C15.4431 7.79199 15.667 8.02984 15.667 8.32324C15.667 8.61664 15.4431 8.85449 15.167 8.85449H9.37408L12.4096 12.0797C12.6049 12.2872 12.6049 12.6236 12.4096 12.831C12.2144 13.0385 11.8978 13.0385 11.7025 12.831L8.66699 9.60581V15.7607C8.66699 16.0541 8.44313 16.292 8.16699 16.292C7.89085 16.292 7.66699 16.0541 7.66699 15.7607V9.60578L4.63145 12.831C4.43619 13.0385 4.11961 13.0385 3.92434 12.831C3.72908 12.6236 3.72908 12.2872 3.92434 12.0797L6.95987 8.85449H1.16699C0.89085 8.85449 0.666992 8.61664 0.666992 8.32324C0.666992 8.02984 0.89085 7.79199 1.16699 7.79199H6.95987L3.92434 4.56674C3.72908 4.35927 3.72908 4.02291 3.92434 3.81544C4.1196 3.60797 4.43618 3.60797 4.63145 3.81544L7.66699 7.04071V0.885742Z" fill="#A95454"/>
</svg>
