<svg width="24" height="24" viewBox="0 0 24 24" fill="none" xmlns="http://www.w3.org/2000/svg">
<path id="Union" d="M11.1904 1.5957C11.1904 1.18149 11.5262 0.845703 11.9404 0.845703C12.3546 0.845703 12.6904 1.18149 12.6904 1.5957V10.285L17.2437 5.73173C17.5366 5.43884 18.0115 5.43884 18.3044 5.73173C18.5973 6.02462 18.5973 6.4995 18.3044 6.79239L13.7511 11.3457H22.4404C22.8546 11.3457 23.1904 11.6815 23.1904 12.0957C23.1904 12.5099 22.8546 12.8457 22.4404 12.8457H13.7511L18.3044 17.399C18.5973 17.6919 18.5973 18.1668 18.3044 18.4597C18.0115 18.7526 17.5366 18.7526 17.2437 18.4597L12.6904 13.9064V22.5957C12.6904 23.0099 12.3546 23.3457 11.9404 23.3457C11.5262 23.3457 11.1904 23.0099 11.1904 22.5957V13.9063L6.63712 18.4597C6.34422 18.7525 5.86935 18.7525 5.57646 18.4597C5.28356 18.1668 5.28356 17.6919 5.57646 17.399L10.1297 12.8457H1.44043C1.02622 12.8457 0.69043 12.5099 0.69043 12.0957C0.69043 11.6815 1.02622 11.3457 1.44043 11.3457H10.1297L5.57645 6.79241C5.28356 6.49951 5.28356 6.02464 5.57645 5.73175C5.86934 5.43885 6.34422 5.43885 6.63711 5.73175L11.1904 10.2851V1.5957Z" fill="#1F1F1F"/>
</svg>
